<mxfile host="app.diagrams.net" modified="2020-05-27T20:02:34.353Z" agent="5.0 (X11)" etag="-ncnbJgdJpOiSHoAK54r" version="13.1.3" type="github">
  <diagram id="dhlINXk_GbIcCbrPr0Ca" name="Page-1">
    <mxGraphModel dx="2112" dy="724" grid="1" gridSize="10" guides="1" tooltips="1" connect="1" arrows="1" fold="1" page="1" pageScale="1" pageWidth="850" pageHeight="1100" math="0" shadow="0">
      <root>
        <mxCell id="0" />
        <mxCell id="1" parent="0" />
        <mxCell id="5ZAbk7sgP6ugfBG4SopD-18" style="edgeStyle=orthogonalEdgeStyle;rounded=0;orthogonalLoop=1;jettySize=auto;html=1;exitX=0;exitY=0;exitDx=0;exitDy=0;entryX=1;entryY=1;entryDx=0;entryDy=0;endArrow=none;endFill=0;" edge="1" parent="1" source="5BdnfJ_ZaTRa2VWmETxn-1" target="5ZAbk7sgP6ugfBG4SopD-7">
          <mxGeometry relative="1" as="geometry" />
        </mxCell>
        <mxCell id="5BdnfJ_ZaTRa2VWmETxn-1" value="Data Source" style="whiteSpace=wrap;html=1;aspect=fixed;fillColor=#fff2cc;strokeColor=#d6b656;" parent="1" vertex="1">
          <mxGeometry x="580" y="370" width="80" height="80" as="geometry" />
        </mxCell>
        <mxCell id="5BdnfJ_ZaTRa2VWmETxn-62" style="edgeStyle=none;rounded=0;orthogonalLoop=1;jettySize=auto;html=1;exitX=1;exitY=0;exitDx=0;exitDy=0;entryX=0;entryY=1;entryDx=0;entryDy=0;endArrow=none;endFill=0;" parent="1" source="5BdnfJ_ZaTRa2VWmETxn-3" target="5BdnfJ_ZaTRa2VWmETxn-31" edge="1">
          <mxGeometry relative="1" as="geometry" />
        </mxCell>
        <mxCell id="5BdnfJ_ZaTRa2VWmETxn-63" style="edgeStyle=none;rounded=0;orthogonalLoop=1;jettySize=auto;html=1;exitX=1;exitY=0.5;exitDx=0;exitDy=0;entryX=0;entryY=0.5;entryDx=0;entryDy=0;endArrow=none;endFill=0;" parent="1" source="5BdnfJ_ZaTRa2VWmETxn-3" target="5BdnfJ_ZaTRa2VWmETxn-30" edge="1">
          <mxGeometry relative="1" as="geometry" />
        </mxCell>
        <mxCell id="5BdnfJ_ZaTRa2VWmETxn-64" style="edgeStyle=none;rounded=0;orthogonalLoop=1;jettySize=auto;html=1;exitX=1;exitY=1;exitDx=0;exitDy=0;entryX=0;entryY=0;entryDx=0;entryDy=0;endArrow=none;endFill=0;" parent="1" source="5BdnfJ_ZaTRa2VWmETxn-3" target="5BdnfJ_ZaTRa2VWmETxn-32" edge="1">
          <mxGeometry relative="1" as="geometry" />
        </mxCell>
        <mxCell id="5ZAbk7sgP6ugfBG4SopD-17" style="edgeStyle=orthogonalEdgeStyle;rounded=0;orthogonalLoop=1;jettySize=auto;html=1;exitX=1;exitY=1;exitDx=0;exitDy=0;entryX=0;entryY=0;entryDx=0;entryDy=0;endArrow=none;endFill=0;" edge="1" parent="1" source="5BdnfJ_ZaTRa2VWmETxn-3" target="5ZAbk7sgP6ugfBG4SopD-7">
          <mxGeometry relative="1" as="geometry" />
        </mxCell>
        <mxCell id="5BdnfJ_ZaTRa2VWmETxn-3" value="Team" style="whiteSpace=wrap;html=1;aspect=fixed;fillColor=#fff2cc;strokeColor=#d6b656;" parent="1" vertex="1">
          <mxGeometry x="355" y="160" width="80" height="80" as="geometry" />
        </mxCell>
        <mxCell id="5BdnfJ_ZaTRa2VWmETxn-55" style="edgeStyle=none;rounded=0;orthogonalLoop=1;jettySize=auto;html=1;exitX=0;exitY=0.75;exitDx=0;exitDy=0;entryX=1;entryY=0.5;entryDx=0;entryDy=0;endArrow=none;endFill=0;" parent="1" source="5BdnfJ_ZaTRa2VWmETxn-4" target="5BdnfJ_ZaTRa2VWmETxn-20" edge="1">
          <mxGeometry relative="1" as="geometry" />
        </mxCell>
        <mxCell id="5BdnfJ_ZaTRa2VWmETxn-56" style="edgeStyle=none;rounded=0;orthogonalLoop=1;jettySize=auto;html=1;exitX=0.25;exitY=1;exitDx=0;exitDy=0;entryX=1;entryY=0;entryDx=0;entryDy=0;endArrow=none;endFill=0;" parent="1" source="5BdnfJ_ZaTRa2VWmETxn-4" target="5BdnfJ_ZaTRa2VWmETxn-21" edge="1">
          <mxGeometry relative="1" as="geometry" />
        </mxCell>
        <mxCell id="5BdnfJ_ZaTRa2VWmETxn-57" style="edgeStyle=none;rounded=0;orthogonalLoop=1;jettySize=auto;html=1;exitX=0.75;exitY=1;exitDx=0;exitDy=0;entryX=0.233;entryY=0.033;entryDx=0;entryDy=0;entryPerimeter=0;endArrow=none;endFill=0;" parent="1" source="5BdnfJ_ZaTRa2VWmETxn-4" target="5BdnfJ_ZaTRa2VWmETxn-14" edge="1">
          <mxGeometry relative="1" as="geometry" />
        </mxCell>
        <mxCell id="5ZAbk7sgP6ugfBG4SopD-13" style="edgeStyle=orthogonalEdgeStyle;rounded=0;orthogonalLoop=1;jettySize=auto;html=1;exitX=1;exitY=0.5;exitDx=0;exitDy=0;entryX=0;entryY=0.5;entryDx=0;entryDy=0;endArrow=none;endFill=0;" edge="1" parent="1" source="5BdnfJ_ZaTRa2VWmETxn-4" target="5ZAbk7sgP6ugfBG4SopD-8">
          <mxGeometry relative="1" as="geometry" />
        </mxCell>
        <mxCell id="5BdnfJ_ZaTRa2VWmETxn-4" value="Work" style="whiteSpace=wrap;html=1;aspect=fixed;fillColor=#fff2cc;strokeColor=#d6b656;" parent="1" vertex="1">
          <mxGeometry x="140" y="370" width="80" height="80" as="geometry" />
        </mxCell>
        <mxCell id="5BdnfJ_ZaTRa2VWmETxn-14" value="Location" style="ellipse;whiteSpace=wrap;html=1;" parent="1" vertex="1">
          <mxGeometry x="200" y="510" width="60" height="60" as="geometry" />
        </mxCell>
        <mxCell id="5ZAbk7sgP6ugfBG4SopD-6" style="edgeStyle=orthogonalEdgeStyle;rounded=0;orthogonalLoop=1;jettySize=auto;html=1;exitX=0;exitY=0;exitDx=0;exitDy=0;entryX=1;entryY=1;entryDx=0;entryDy=0;endArrow=none;endFill=0;" edge="1" parent="1" source="5BdnfJ_ZaTRa2VWmETxn-17" target="5BdnfJ_ZaTRa2VWmETxn-4">
          <mxGeometry relative="1" as="geometry" />
        </mxCell>
        <mxCell id="5BdnfJ_ZaTRa2VWmETxn-17" value="Project ID" style="ellipse;whiteSpace=wrap;html=1;" parent="1" vertex="1">
          <mxGeometry x="290" y="480" width="60" height="60" as="geometry" />
        </mxCell>
        <mxCell id="5BdnfJ_ZaTRa2VWmETxn-20" value="Project Name" style="ellipse;whiteSpace=wrap;html=1;" parent="1" vertex="1">
          <mxGeometry x="-10" y="440" width="60" height="60" as="geometry" />
        </mxCell>
        <mxCell id="5BdnfJ_ZaTRa2VWmETxn-21" value="Description" style="ellipse;whiteSpace=wrap;html=1;" parent="1" vertex="1">
          <mxGeometry x="60" y="510" width="60" height="60" as="geometry" />
        </mxCell>
        <mxCell id="5ZAbk7sgP6ugfBG4SopD-10" style="edgeStyle=orthogonalEdgeStyle;rounded=0;orthogonalLoop=1;jettySize=auto;html=1;exitX=0.5;exitY=0;exitDx=0;exitDy=0;entryX=0.75;entryY=1;entryDx=0;entryDy=0;endArrow=none;endFill=0;" edge="1" parent="1" source="5BdnfJ_ZaTRa2VWmETxn-26" target="5BdnfJ_ZaTRa2VWmETxn-1">
          <mxGeometry relative="1" as="geometry" />
        </mxCell>
        <mxCell id="5BdnfJ_ZaTRa2VWmETxn-26" value="Description" style="ellipse;whiteSpace=wrap;html=1;" parent="1" vertex="1">
          <mxGeometry x="660" y="510" width="60" height="60" as="geometry" />
        </mxCell>
        <mxCell id="5ZAbk7sgP6ugfBG4SopD-15" style="edgeStyle=orthogonalEdgeStyle;rounded=0;orthogonalLoop=1;jettySize=auto;html=1;exitX=1;exitY=0;exitDx=0;exitDy=0;entryX=0;entryY=0.75;entryDx=0;entryDy=0;endArrow=none;endFill=0;" edge="1" parent="1" source="5BdnfJ_ZaTRa2VWmETxn-27" target="5BdnfJ_ZaTRa2VWmETxn-1">
          <mxGeometry relative="1" as="geometry" />
        </mxCell>
        <mxCell id="5BdnfJ_ZaTRa2VWmETxn-27" value="Limitations" style="ellipse;whiteSpace=wrap;html=1;" parent="1" vertex="1">
          <mxGeometry x="470" y="450" width="60" height="60" as="geometry" />
        </mxCell>
        <mxCell id="5ZAbk7sgP6ugfBG4SopD-11" style="edgeStyle=orthogonalEdgeStyle;rounded=0;orthogonalLoop=1;jettySize=auto;html=1;exitX=0.5;exitY=0;exitDx=0;exitDy=0;entryX=0.25;entryY=1;entryDx=0;entryDy=0;endArrow=none;endFill=0;" edge="1" parent="1" source="5BdnfJ_ZaTRa2VWmETxn-28" target="5BdnfJ_ZaTRa2VWmETxn-1">
          <mxGeometry relative="1" as="geometry" />
        </mxCell>
        <mxCell id="5BdnfJ_ZaTRa2VWmETxn-28" value="ID" style="ellipse;whiteSpace=wrap;html=1;" parent="1" vertex="1">
          <mxGeometry x="550" y="510" width="60" height="60" as="geometry" />
        </mxCell>
        <mxCell id="5BdnfJ_ZaTRa2VWmETxn-30" value="ID" style="ellipse;whiteSpace=wrap;html=1;" parent="1" vertex="1">
          <mxGeometry x="350" y="60" width="60" height="60" as="geometry" />
        </mxCell>
        <mxCell id="5BdnfJ_ZaTRa2VWmETxn-31" value="Lead Name" style="ellipse;whiteSpace=wrap;html=1;" parent="1" vertex="1">
          <mxGeometry x="470" y="80" width="60" height="60" as="geometry" />
        </mxCell>
        <mxCell id="5BdnfJ_ZaTRa2VWmETxn-32" value="Description" style="ellipse;whiteSpace=wrap;html=1;" parent="1" vertex="1">
          <mxGeometry x="230" y="80" width="60" height="60" as="geometry" />
        </mxCell>
        <mxCell id="5BdnfJ_ZaTRa2VWmETxn-59" style="edgeStyle=none;rounded=0;orthogonalLoop=1;jettySize=auto;html=1;exitX=1;exitY=0;exitDx=0;exitDy=0;endArrow=none;endFill=0;" parent="1" source="5BdnfJ_ZaTRa2VWmETxn-33" target="5BdnfJ_ZaTRa2VWmETxn-3" edge="1">
          <mxGeometry relative="1" as="geometry" />
        </mxCell>
        <mxCell id="5BdnfJ_ZaTRa2VWmETxn-61" style="edgeStyle=none;rounded=0;orthogonalLoop=1;jettySize=auto;html=1;exitX=0;exitY=1;exitDx=0;exitDy=0;entryX=1;entryY=0.25;entryDx=0;entryDy=0;endArrow=none;endFill=0;" parent="1" source="5BdnfJ_ZaTRa2VWmETxn-33" target="5BdnfJ_ZaTRa2VWmETxn-4" edge="1">
          <mxGeometry relative="1" as="geometry" />
        </mxCell>
        <mxCell id="5BdnfJ_ZaTRa2VWmETxn-33" value="Activity" style="rhombus;whiteSpace=wrap;html=1;fillColor=#f8cecc;strokeColor=#b85450;" parent="1" vertex="1">
          <mxGeometry x="245" y="280" width="80" height="80" as="geometry" />
        </mxCell>
        <mxCell id="5ZAbk7sgP6ugfBG4SopD-16" style="edgeStyle=orthogonalEdgeStyle;rounded=0;orthogonalLoop=1;jettySize=auto;html=1;exitX=0;exitY=0;exitDx=0;exitDy=0;entryX=1;entryY=0.75;entryDx=0;entryDy=0;endArrow=none;endFill=0;" edge="1" parent="1" source="5BdnfJ_ZaTRa2VWmETxn-53" target="5BdnfJ_ZaTRa2VWmETxn-1">
          <mxGeometry relative="1" as="geometry" />
        </mxCell>
        <mxCell id="5BdnfJ_ZaTRa2VWmETxn-53" value="Source" style="ellipse;whiteSpace=wrap;html=1;" parent="1" vertex="1">
          <mxGeometry x="740" y="450" width="60" height="60" as="geometry" />
        </mxCell>
        <mxCell id="5ZAbk7sgP6ugfBG4SopD-4" value="M" style="text;html=1;align=center;verticalAlign=middle;resizable=0;points=[];autosize=1;" vertex="1" parent="1">
          <mxGeometry x="305" y="250" width="30" height="20" as="geometry" />
        </mxCell>
        <mxCell id="5ZAbk7sgP6ugfBG4SopD-5" value="M" style="text;html=1;align=center;verticalAlign=middle;resizable=0;points=[];autosize=1;" vertex="1" parent="1">
          <mxGeometry x="215" y="340" width="30" height="20" as="geometry" />
        </mxCell>
        <mxCell id="5ZAbk7sgP6ugfBG4SopD-7" value="Access" style="rhombus;whiteSpace=wrap;html=1;fillColor=#f8cecc;strokeColor=#b85450;" vertex="1" parent="1">
          <mxGeometry x="490" y="280" width="80" height="80" as="geometry" />
        </mxCell>
        <mxCell id="5ZAbk7sgP6ugfBG4SopD-14" style="edgeStyle=orthogonalEdgeStyle;rounded=0;orthogonalLoop=1;jettySize=auto;html=1;exitX=1;exitY=0.5;exitDx=0;exitDy=0;endArrow=none;endFill=0;" edge="1" parent="1" source="5ZAbk7sgP6ugfBG4SopD-8">
          <mxGeometry relative="1" as="geometry">
            <mxPoint x="580" y="410" as="targetPoint" />
          </mxGeometry>
        </mxCell>
        <mxCell id="5ZAbk7sgP6ugfBG4SopD-8" value="Using" style="rhombus;whiteSpace=wrap;html=1;fillColor=#f8cecc;strokeColor=#b85450;" vertex="1" parent="1">
          <mxGeometry x="370" y="370" width="80" height="80" as="geometry" />
        </mxCell>
        <mxCell id="5ZAbk7sgP6ugfBG4SopD-19" value="M" style="text;html=1;align=center;verticalAlign=middle;resizable=0;points=[];autosize=1;" vertex="1" parent="1">
          <mxGeometry x="295" y="380" width="30" height="20" as="geometry" />
        </mxCell>
        <mxCell id="5ZAbk7sgP6ugfBG4SopD-20" value="M" style="text;html=1;align=center;verticalAlign=middle;resizable=0;points=[];autosize=1;" vertex="1" parent="1">
          <mxGeometry x="500" y="380" width="30" height="20" as="geometry" />
        </mxCell>
        <mxCell id="5ZAbk7sgP6ugfBG4SopD-21" value="M" style="text;html=1;align=center;verticalAlign=middle;resizable=0;points=[];autosize=1;" vertex="1" parent="1">
          <mxGeometry x="460" y="230" width="30" height="20" as="geometry" />
        </mxCell>
        <mxCell id="5ZAbk7sgP6ugfBG4SopD-22" value="M" style="text;html=1;align=center;verticalAlign=middle;resizable=0;points=[];autosize=1;" vertex="1" parent="1">
          <mxGeometry x="580" y="330" width="30" height="20" as="geometry" />
        </mxCell>
      </root>
    </mxGraphModel>
  </diagram>
</mxfile>
